<svg xmlns="http://www.w3.org/2000/svg" width="680" height="680" viewBox="0 0 680 680" role="img" aria-labelledby="title desc">
  <title id="title">Backlog Surgeon logo</title>
  <desc id="desc">A stylized scalpel slicing through stacked papers with the words Backlog Surgeon beneath it.</desc>
  <defs>
    <linearGradient id="bg" x1="50%" x2="50%" y1="0%" y2="100%">
      <stop offset="0%" stop-color="#0f111d"/>
      <stop offset="100%" stop-color="#080a12"/>
    </linearGradient>
    <linearGradient id="steel" x1="0%" x2="100%" y1="0%" y2="100%">
      <stop offset="0%" stop-color="#eef2f5"/>
      <stop offset="100%" stop-color="#9aa5b5"/>
    </linearGradient>
    <linearGradient id="red" x1="0%" x2="100%" y1="0%" y2="0%">
      <stop offset="0%" stop-color="#ff3131"/>
      <stop offset="100%" stop-color="#ff6161"/>
    </linearGradient>
    <filter id="glow" x="-50%" y="-50%" width="200%" height="200%">
      <feDropShadow dx="0" dy="0" stdDeviation="6" flood-color="#ff3131" flood-opacity="0.6"/>
    </filter>
  </defs>
  <rect width="680" height="680" fill="url(#bg)" rx="34"/>
  <g transform="translate(60 90)">
    <g transform="translate(40 80) rotate(-10 240 120)">
      <path d="M120 180c70-36 140-48 210-35 20 4 38 9 54 15l-38 28c-18-6-36-10-54-13-56-8-111 1-166 27l-6-22z" fill="#131722"/>
      <path d="M56 204c88-68 182-94 282-74 24 5 46 11 65 20l-62 43c-17-8-35-14-53-17-80-14-155 5-224 58l-8-30z" fill="#1a2233"/>
      <path d="M0 212c97-88 208-128 332-118 30 3 58 9 84 19l-76 54c-17-7-34-12-52-15-99-16-185 15-257 94l-31-34z" fill="#222c3f"/>
    </g>
    <g transform="translate(80 70)">
      <path d="M68 258c-6-6-6-15 0-20l188-170c6-5 15-5 20 1l26 28-206 186-28-25z" fill="#1f2839"/>
      <path d="M235 58c10-9 24-7 32 3l51 64c6 7 4 17-3 23L140 304c-7 6-18 6-24-1l-58-61c-7-8-6-19 2-26l175-158z" fill="url(#steel)"/>
      <path d="M302 117c8-7 20-6 27 2l14 16c6 7 6 17-1 23L178 323c-7 6-17 6-24-1l-20-21c-7-8-6-19 2-26l166-148z" fill="#c7ced8"/>
      <rect transform="rotate(42 170 162)" x="52" y="146" width="236" height="32" rx="8" fill="url(#red)" filter="url(#glow)"/>
      <circle cx="268" cy="122" r="10" fill="#fff" opacity="0.4"/>
      <rect x="232" y="8" width="70" height="18" rx="9" fill="#939eaf"/>
      <rect x="240" y="30" width="52" height="10" rx="5" fill="#7d8797"/>
      <rect x="244" y="48" width="44" height="10" rx="5" fill="#7d8797"/>
    </g>
    <g transform="translate(50 400)" fill="#f1f3f7" font-family="Inter, system-ui, -apple-system, sans-serif" font-weight="700">
      <text font-size="86" letter-spacing="1.5">
        <tspan x="30" y="0">BACKLOG</tspan>
      </text>
      <text font-size="66" fill="url(#red)" letter-spacing="1">
        <tspan x="112" y="72">SURGEON</tspan>
      </text>
    </g>
  </g>
</svg>
